<svg width="1508" height="1629" viewBox="0 0 1508 1629" fill="none" xmlns="http://www.w3.org/2000/svg">
<path d="M1051.22 301.675H1113.21C1147.45 301.675 1175.21 273.919 1175.21 239.68V151.338L1262.4 151C1376.53 151 1469.05 243.52 1469.05 357.65V1378.5C1469.05 1492.63 1376.53 1585.15 1262.4 1585.15H244.65C130.52 1585.15 38 1492.63 38 1378.5V357.65C38 243.52 130.52 151 244.65 151L352.744 151.338L352.746 240.139C352.992 274.167 380.653 301.675 414.739 301.675H476.734C510.82 301.675 538.481 274.167 538.727 240.139L538.729 151.338H989.225V239.68C989.225 273.919 1016.98 301.675 1051.22 301.675Z" fill="url(#paint0_linear)"/>
<path d="M385.742 51.9642C385.742 39.814 395.592 29.9642 407.742 29.9642H487.732C499.882 29.9642 509.732 39.814 509.732 51.9642V247.678C509.732 259.828 499.882 269.678 487.732 269.678H407.742C395.592 269.678 385.742 259.828 385.742 247.678V51.9642Z" fill="url(#paint1_linear)"/>
<path d="M1020.16 51.9642C1020.16 39.814 1030.01 29.9642 1042.16 29.9642H1122.15C1134.3 29.9642 1144.15 39.814 1144.15 51.9642V247.678C1144.15 259.828 1134.3 269.678 1122.15 269.678H1042.16C1030.01 269.678 1020.16 259.828 1020.16 247.678V51.9642Z" fill="url(#paint2_linear)"/>
<path d="M148.094 565.187C148.094 479.59 217.484 410.2 303.081 410.2H1208.21C1293.8 410.2 1363.19 479.59 1363.19 565.187V1285.36C1363.19 1370.96 1293.8 1440.35 1208.21 1440.35H303.081C217.484 1440.35 148.094 1370.96 148.094 1285.36V565.187Z" fill="white"/>
<defs>
<linearGradient id="paint0_linear" x1="753.524" y1="151" x2="753.524" y2="1585.15" gradientUnits="userSpaceOnUse">
<stop stop-color="#F64C01"/>
<stop offset="1" stop-color="#FF773A"/>
</linearGradient>
<linearGradient id="paint1_linear" x1="447.737" y1="29.9642" x2="447.737" y2="269.678" gradientUnits="userSpaceOnUse">
<stop stop-color="#F64C01"/>
<stop offset="1" stop-color="#FF773A"/>
</linearGradient>
<linearGradient id="paint2_linear" x1="1082.15" y1="29.9642" x2="1082.15" y2="269.678" gradientUnits="userSpaceOnUse">
<stop stop-color="#F64C01"/>
<stop offset="1" stop-color="#FF773A"/>
</linearGradient>
</defs>
</svg>
