<svg width="889" height="882" viewBox="0 0 889 882" fill="none" xmlns="http://www.w3.org/2000/svg">
<path d="M444.066 882C689.318 882 888.133 684.558 888.133 441C888.133 197.442 689.318 0 444.066 0C425.976 25.6949 425.579 40.0653 444.819 65.6159C653.075 65.6159 821.899 233.34 821.899 440.237C821.899 647.135 653.075 814.858 444.819 814.858C236.564 814.858 67.739 647.135 67.739 440.237C41.2265 415.974 26.3963 416.71 0 441C0 684.558 198.815 882 444.066 882Z" fill="#F64D03"/>
<path d="M323.642 65.6159C323.642 86.6849 306.793 103.765 286.009 103.765C265.225 103.765 248.376 86.6849 248.376 65.6159C248.376 44.5469 265.225 27.4671 286.009 27.4671C306.793 27.4671 323.642 44.5469 323.642 65.6159Z" fill="#F64D03"/>
<path d="M194.185 154.121C194.185 175.19 177.336 192.27 156.552 192.27C135.768 192.27 118.919 175.19 118.919 154.121C118.919 133.052 135.768 115.972 156.552 115.972C177.336 115.972 194.185 133.052 194.185 154.121Z" fill="#F64D03"/>
<path d="M106.877 283.827C106.877 304.896 90.0283 321.976 69.2443 321.976C48.4603 321.976 31.6115 304.896 31.6115 283.827C31.6115 262.758 48.4603 245.678 69.2443 245.678C90.0283 245.678 106.877 262.758 106.877 283.827Z" fill="#F64D03"/>
</svg>
