<svg width="151" height="69" viewBox="0 0 151 69" fill="none" xmlns="http://www.w3.org/2000/svg">
<path d="M36.3205 18H32.7805L32.1981 15.7523H28.3033L27.7027 18H24.1445L28.0485 5.97877H32.371L36.3205 18ZM28.9767 13.1041H31.5247C30.7724 10.2649 30.3417 8.54803 30.2325 7.95349C30.1112 8.70576 29.6926 10.4226 28.9767 13.1041ZM40.4212 18.3185C40.0754 18.3185 39.7842 18.3974 39.5476 18.5551C39.311 18.7189 39.1927 18.9252 39.1927 19.1739C39.1927 19.4226 39.3353 19.6259 39.6204 19.7836C39.9055 19.9474 40.2847 20.0293 40.7579 20.0293C41.5284 20.0293 42.1502 19.9323 42.6234 19.7381C43.0906 19.544 43.3241 19.2952 43.3241 18.9919C43.3241 18.7492 43.1876 18.5763 42.9146 18.4732C42.6416 18.3701 42.2291 18.3185 41.677 18.3185H40.4212ZM46.1907 8.7179V10.2649L44.9167 10.7381C45.0926 11.0597 45.1806 11.4267 45.1806 11.8392C45.1806 12.8524 44.8257 13.632 44.1159 14.178C43.4121 14.724 42.3686 14.997 40.9854 14.997C40.6275 14.997 40.3545 14.9757 40.1664 14.9333C40.0875 15.0667 40.0481 15.2002 40.0481 15.3337C40.0481 15.4914 40.1725 15.6127 40.4212 15.6977C40.676 15.7826 41.0158 15.8251 41.4404 15.8251H42.9874C45.0683 15.8251 46.1088 16.7017 46.1088 18.455C46.1088 19.5774 45.6234 20.454 44.6528 21.0849C43.6882 21.7159 42.3383 22.0313 40.6032 22.0313C39.2867 22.0313 38.2706 21.8099 37.5547 21.367C36.8449 20.9302 36.49 20.2993 36.49 19.4742C36.49 18.364 37.1785 17.6481 38.5557 17.3266C38.2706 17.2053 38.0218 17.0142 37.8095 16.7533C37.6032 16.4863 37.5001 16.2164 37.5001 15.9434C37.5001 15.6643 37.5759 15.4156 37.7276 15.1972C37.8853 14.9727 38.219 14.7058 38.7286 14.3964C38.2372 14.178 37.855 13.8443 37.582 13.3953C37.315 12.9403 37.1816 12.3883 37.1816 11.7391C37.1816 10.7321 37.5244 9.94944 38.2099 9.3913C38.9015 8.83316 39.8843 8.55409 41.1583 8.55409C41.6255 8.55409 42.223 8.6087 42.951 8.7179H46.1907ZM41.1947 10.3377C40.5335 10.3377 40.2028 10.814 40.2028 11.7664C40.2028 12.7128 40.5335 13.186 41.1947 13.186C41.8317 13.186 42.1502 12.7128 42.1502 11.7664C42.1502 10.814 41.8317 10.3377 41.1947 10.3377ZM53.1931 8.55409C53.3994 8.55409 53.7239 8.58746 54.1668 8.6542L53.8847 11.6754C53.6056 11.6087 53.2416 11.5753 52.7927 11.5753C51.458 11.5753 50.7907 12.1972 50.7907 13.4408V18H47.5874V8.7179H49.9717L50.4722 10.2012H50.6269C50.8938 9.70374 51.2669 9.30637 51.7462 9.0091C52.2315 8.70576 52.7138 8.55409 53.1931 8.55409ZM60.7796 12.2123C60.7736 11.7634 60.6492 11.4055 60.4065 11.1385C60.1638 10.8716 59.8393 10.7381 59.4328 10.7381C59.0324 10.7381 58.7078 10.8625 58.4591 11.1112C58.2164 11.3539 58.0739 11.7209 58.0314 12.2123H60.7796ZM59.6148 18.1638C58.0678 18.1638 56.8666 17.7543 56.0112 16.9353C55.1558 16.1041 54.7281 14.9181 54.7281 13.3771C54.7281 11.8362 55.1224 10.6471 55.9111 9.80991C56.6997 8.9727 57.813 8.55409 59.2508 8.55409C60.6886 8.55409 61.7867 8.92113 62.545 9.65521C63.3094 10.3893 63.6917 11.4388 63.6917 12.8038V14.2235H57.9677C57.9859 14.7452 58.174 15.1547 58.5319 15.452C58.8898 15.7432 59.36 15.8888 59.9424 15.8888C60.5309 15.8888 61.0648 15.8372 61.544 15.7341C62.0233 15.6249 62.5359 15.4398 63.0819 15.179V17.4813C62.5966 17.7361 62.084 17.912 61.544 18.0091C61.0102 18.1122 60.3671 18.1638 59.6148 18.1638ZM68.4935 18.3185C68.1477 18.3185 67.8565 18.3974 67.6199 18.5551C67.3833 18.7189 67.265 18.9252 67.265 19.1739C67.265 19.4226 67.4075 19.6259 67.6927 19.7836C67.9778 19.9474 68.357 20.0293 68.8302 20.0293C69.6007 20.0293 70.2225 19.9323 70.6957 19.7381C71.1628 19.544 71.3964 19.2952 71.3964 18.9919C71.3964 18.7492 71.2599 18.5763 70.9869 18.4732C70.7139 18.3701 70.3014 18.3185 69.7493 18.3185H68.4935ZM74.2629 8.7179V10.2649L72.9889 10.7381C73.1649 11.0597 73.2528 11.4267 73.2528 11.8392C73.2528 12.8524 72.8979 13.632 72.1881 14.178C71.4844 14.724 70.4409 14.997 69.0577 14.997C68.6998 14.997 68.4267 14.9757 68.2387 14.9333C68.1598 15.0667 68.1204 15.2002 68.1204 15.3337C68.1204 15.4914 68.2447 15.6127 68.4935 15.6977C68.7483 15.7826 69.088 15.8251 69.5127 15.8251H71.0597C73.1406 15.8251 74.181 16.7017 74.181 18.455C74.181 19.5774 73.6957 20.454 72.725 21.0849C71.7604 21.7159 70.4106 22.0313 68.6755 22.0313C67.359 22.0313 66.3428 21.8099 65.627 21.367C64.9171 20.9302 64.5622 20.2993 64.5622 19.4742C64.5622 18.364 65.2508 17.6481 66.628 17.3266C66.3428 17.2053 66.0941 17.0142 65.8818 16.7533C65.6755 16.4863 65.5724 16.2164 65.5724 15.9434C65.5724 15.6643 65.6482 15.4156 65.7999 15.1972C65.9576 14.9727 66.2913 14.7058 66.8009 14.3964C66.3095 14.178 65.9273 13.8443 65.6543 13.3953C65.3873 12.9403 65.2538 12.3883 65.2538 11.7391C65.2538 10.7321 65.5966 9.94944 66.2822 9.3913C66.9738 8.83316 67.9566 8.55409 69.2306 8.55409C69.6977 8.55409 70.2953 8.6087 71.0233 8.7179H74.2629ZM69.267 10.3377C68.6057 10.3377 68.2751 10.814 68.2751 11.7664C68.2751 12.7128 68.6057 13.186 69.267 13.186C69.904 13.186 70.2225 12.7128 70.2225 11.7664C70.2225 10.814 69.904 10.3377 69.267 10.3377ZM83.9317 18H81.7204L81.1016 16.7715H81.0379C80.6193 17.2993 80.1794 17.6633 79.7184 17.8635C79.2633 18.0637 78.684 18.1638 77.9802 18.1638C77.1006 18.1638 76.412 17.8999 75.9145 17.3721C75.417 16.8443 75.1683 16.1102 75.1683 15.1699C75.1683 13.2649 76.506 12.2578 79.1814 12.1486L80.7376 12.094V11.9666C80.7376 11.2022 80.3584 10.82 79.6 10.82C78.9327 10.82 78.0743 11.0475 77.0247 11.5025L76.0965 9.3913C77.1825 8.83316 78.5475 8.55409 80.1916 8.55409C81.3806 8.55409 82.2997 8.85136 82.9489 9.4459C83.6041 10.0404 83.9317 10.8625 83.9317 11.912V18ZM78.4352 15.0516C78.4352 15.6218 78.7386 15.907 79.3452 15.907C79.7335 15.907 80.0642 15.7856 80.3372 15.543C80.6102 15.3003 80.7467 14.9788 80.7467 14.5784V13.8595L80.0096 13.8868C78.96 13.9353 78.4352 14.3236 78.4352 15.0516Z" fill="#F64D03"/>
<path d="M62.4121 29.0961V43.921H56.016V29.0961H49.4752V24H68.924V29.0961H62.4121Z" fill="#898989"/>
<path d="M79.8267 43.921L79.4504 41.6046C78.8523 42.4346 78.0612 43.0909 77.0772 43.5735C76.1125 44.0368 75.0899 44.2684 74.0094 44.2684C72.2343 44.2684 70.903 43.7762 70.0154 42.7917C69.1279 41.8073 68.6841 40.3885 68.6841 38.5354V28.6328H74.4435V37.8405C74.4435 38.4968 74.6075 39.0276 74.9355 39.433C75.2828 39.819 75.7652 40.0121 76.3826 40.0121C77.0965 40.0121 77.6753 39.7804 78.1191 39.3172C78.5629 38.8539 78.7848 38.2844 78.7848 37.6088V28.6328H84.5441V43.921H79.8267Z" fill="#898989"/>
<path d="M36.333 45.65C39.2853 45.65 41.6202 46.3931 43.3375 47.8793C45.0549 49.3462 45.9135 51.45 45.9135 54.1908H39.8063C39.8063 53.0327 39.4976 52.1159 38.8801 51.4404C38.2819 50.7648 37.4233 50.4271 36.3041 50.4271C35.0113 50.4271 34.0561 50.8324 33.4386 51.643C32.8405 52.4537 32.5414 53.5828 32.5414 55.0304V56.8833C32.5414 58.3116 32.8405 59.4407 33.4386 60.2706C34.0561 61.0813 34.992 61.4866 36.2462 61.4866C37.4812 61.4866 38.417 61.1681 39.0538 60.5312C39.6905 59.8942 40.0089 58.9967 40.0089 57.8387H45.9135C45.9135 60.5601 45.0741 62.6447 43.3954 64.0922C41.7359 65.5398 39.3818 66.2636 36.333 66.2636C32.9369 66.2636 30.3609 65.3951 28.605 63.658C26.8683 61.9209 26 59.3538 26 55.9568C26 52.5598 26.8683 49.9928 28.605 48.2557C30.3609 46.5186 32.9369 45.65 36.333 45.65Z" fill="#898989"/>
<path d="M47.7173 65.9162V50.6297H53.4772V65.9162H47.7173Z" fill="#898989"/>
<path d="M65.8944 50.6297V54.5382H62.6527V60.3575C62.6527 61.0523 62.7685 61.5638 63 61.8919C63.2316 62.2007 63.6561 62.3551 64.2736 62.3551H65.8944V65.7425C65.4313 65.8969 64.8332 66.0224 64.0999 66.1189C63.3667 66.2154 62.7299 66.2636 62.1896 66.2636C60.4915 66.2636 59.1794 65.9548 58.2532 65.3372C57.3463 64.7195 56.8928 63.6676 56.8928 62.1814V54.5382H54.751V50.6297H57.1244L58.369 45.9975H62.6527V50.6297H65.8944Z" fill="#898989"/>
<path d="M74.6742 50.2823C77.009 50.2823 78.9097 50.678 80.3762 51.4693C81.8427 52.2414 82.5759 53.5056 82.5759 55.262V61.226C82.5759 61.5541 82.6531 61.8244 82.8075 62.0367C82.9619 62.249 83.1934 62.3551 83.5022 62.3551H84.5441V65.6846C84.4863 65.7232 84.3319 65.7907 84.081 65.8872C83.8495 65.9644 83.5118 66.0417 83.068 66.1189C82.6242 66.2154 82.1128 66.2636 81.534 66.2636C80.4148 66.2636 79.4886 66.0996 78.7553 65.7714C78.0414 65.424 77.5493 64.9511 77.2792 64.3528C76.5459 64.9318 75.7259 65.3951 74.8189 65.7425C73.912 66.0899 72.8507 66.2636 71.6351 66.2636C68.046 66.2636 66.2515 64.8353 66.2515 61.9788C66.2515 60.4926 66.6471 59.3635 67.4382 58.5914C68.2486 57.8001 69.4064 57.2597 70.9115 56.9701C72.4166 56.6806 74.3848 56.5359 76.8161 56.5359V55.7831C76.8161 55.1848 76.6038 54.7312 76.1793 54.4224C75.7741 54.1136 75.2435 53.9592 74.5874 53.9592C73.9892 53.9592 73.4682 54.0653 73.0244 54.2776C72.5999 54.4899 72.3876 54.8277 72.3876 55.2909V55.4067H66.7146C66.6953 55.3102 66.6857 55.1751 66.6857 55.0014C66.6857 53.5538 67.3707 52.4054 68.7407 51.5562C70.13 50.7069 72.1078 50.2823 74.6742 50.2823ZM76.8161 59.2573C75.1759 59.2573 73.9603 59.4407 73.1691 59.8074C72.3973 60.1548 72.0114 60.6277 72.0114 61.226C72.0114 62.1911 72.6674 62.6736 73.9796 62.6736C74.7321 62.6736 75.3882 62.4709 75.9478 62.0656C76.5266 61.6603 76.8161 61.1585 76.8161 60.5601V59.2573Z" fill="#898989"/>
<path d="M53.5866 45.769C53.5866 47.4152 52.2521 48.7496 50.6059 48.7496C48.9597 48.7496 47.6252 47.4152 47.6252 45.769C47.6252 44.1228 48.9597 42.7883 50.6059 42.7883C52.2521 42.7883 53.5866 44.1228 53.5866 45.769Z" fill="#898989"/>
<path d="M100.361 24.7143C100.361 13.8264 108.865 5 119.356 5C129.847 5 138.351 13.8264 138.351 24.7143M105.829 42V58.7143M115.183 42V58.7143M124.393 42V58.7143M133.602 42V58.7143M90 34.7143C90 32.1896 91.9328 30.1429 94.3171 30.1429H144.683C147.067 30.1429 149 32.1896 149 34.7143C149 36.9212 147.743 38.5446 145.834 38.9183L141.805 62.4286C141.805 64.9533 139.872 67 137.488 67H102.088C99.7036 67 97.7707 64.9533 97.7707 62.4286L93.8854 39.2631C91.7038 39.0338 90 37.0847 90 34.7143Z" stroke="#FF4F00" stroke-width="3"/>
</svg>
