<svg width="151" height="69" viewBox="0 0 151 69" fill="none" xmlns="http://www.w3.org/2000/svg">
<path d="M63.4435 18H59.9036L59.3212 15.7523H55.4263L54.8257 18H51.2676L55.1715 5.97877H59.4941L63.4435 18ZM56.0997 13.1041H58.6478C57.8955 10.2649 57.4647 8.54803 57.3555 7.95349C57.2342 8.70576 56.8156 10.4226 56.0997 13.1041ZM67.5625 8.55409C68.0842 8.55409 68.5392 8.66026 68.9275 8.8726C69.3218 9.08493 69.6767 9.43377 69.9922 9.91911H70.0559C69.9528 9.16684 69.9012 8.43883 69.9012 7.73509V5.25986H73.1317V18H70.7111L70.0286 16.8261H69.9012C69.3491 17.7179 68.5271 18.1638 67.4351 18.1638C66.4462 18.1881 65.6484 17.7634 65.0417 16.8898C64.4411 16.0162 64.1408 14.8332 64.1408 13.3407C64.1469 11.8483 64.4533 10.6775 65.0599 9.82811C65.6727 8.97877 66.5069 8.55409 67.5625 8.55409ZM68.7182 11.1385C68.2935 11.1385 67.9659 11.3357 67.7354 11.73C67.5048 12.1244 67.3896 12.6855 67.3896 13.4135C67.3896 14.1416 67.5048 14.6936 67.7354 15.0698C67.972 15.4459 68.3238 15.634 68.791 15.634C69.2642 15.634 69.607 15.4793 69.8193 15.1699C70.0377 14.8544 70.156 14.3509 70.1742 13.6593V13.4044C70.1742 12.5976 70.0559 12.0182 69.8193 11.6663C69.5888 11.3145 69.2217 11.1385 68.7182 11.1385ZM78.3379 8.55409C78.8596 8.55409 79.3146 8.66026 79.7029 8.8726C80.0972 9.08493 80.4521 9.43377 80.7676 9.91911H80.8313C80.7281 9.16684 80.6766 8.43883 80.6766 7.73509V5.25986H83.9071V18H81.4865L80.804 16.8261H80.6766C80.1245 17.7179 79.3025 18.1638 78.2105 18.1638C77.2216 18.1881 76.4238 17.7634 75.8171 16.8898C75.2165 16.0162 74.9162 14.8332 74.9162 13.3407C74.9223 11.8483 75.2287 10.6775 75.8353 9.82811C76.4481 8.97877 77.2822 8.55409 78.3379 8.55409ZM79.4936 11.1385C79.0689 11.1385 78.7413 11.3357 78.5108 11.73C78.2802 12.1244 78.165 12.6855 78.165 13.4135C78.165 14.1416 78.2802 14.6936 78.5108 15.0698C78.7474 15.4459 79.0992 15.634 79.5664 15.634C80.0396 15.634 80.3823 15.4793 80.5947 15.1699C80.8131 14.8544 80.9314 14.3509 80.9496 13.6593V13.4044C80.9496 12.5976 80.8313 12.0182 80.5947 11.6663C80.3641 11.3145 79.9971 11.1385 79.4936 11.1385Z" fill="#F64D03"/>
<path d="M62.4121 29.0961V43.921H56.016V29.0961H49.4752V24H68.924V29.0961H62.4121Z" fill="#898989"/>
<path d="M79.8267 43.921L79.4504 41.6046C78.8523 42.4346 78.0612 43.0909 77.0772 43.5735C76.1125 44.0368 75.0899 44.2684 74.0094 44.2684C72.2343 44.2684 70.903 43.7762 70.0154 42.7917C69.1279 41.8073 68.6841 40.3885 68.6841 38.5354V28.6328H74.4435V37.8405C74.4435 38.4968 74.6075 39.0276 74.9355 39.433C75.2828 39.819 75.7652 40.0121 76.3826 40.0121C77.0965 40.0121 77.6753 39.7804 78.1191 39.3172C78.5629 38.8539 78.7848 38.2844 78.7848 37.6088V28.6328H84.5441V43.921H79.8267Z" fill="#898989"/>
<path d="M36.333 45.65C39.2853 45.65 41.6202 46.3931 43.3375 47.8793C45.0549 49.3462 45.9135 51.45 45.9135 54.1908H39.8063C39.8063 53.0327 39.4976 52.1159 38.8801 51.4404C38.2819 50.7648 37.4233 50.4271 36.3041 50.4271C35.0113 50.4271 34.0561 50.8324 33.4386 51.643C32.8405 52.4537 32.5414 53.5828 32.5414 55.0304V56.8833C32.5414 58.3116 32.8405 59.4407 33.4386 60.2706C34.0561 61.0813 34.992 61.4866 36.2462 61.4866C37.4812 61.4866 38.417 61.1681 39.0538 60.5312C39.6905 59.8942 40.0089 58.9967 40.0089 57.8387H45.9135C45.9135 60.5601 45.0741 62.6447 43.3954 64.0922C41.7359 65.5398 39.3818 66.2636 36.333 66.2636C32.9369 66.2636 30.3609 65.3951 28.605 63.658C26.8683 61.9209 26 59.3538 26 55.9568C26 52.5598 26.8683 49.9928 28.605 48.2557C30.3609 46.5186 32.9369 45.65 36.333 45.65Z" fill="#898989"/>
<path d="M47.7173 65.9162V50.6297H53.4772V65.9162H47.7173Z" fill="#898989"/>
<path d="M65.8944 50.6297V54.5382H62.6527V60.3575C62.6527 61.0523 62.7685 61.5638 63 61.8919C63.2316 62.2007 63.6561 62.3551 64.2736 62.3551H65.8944V65.7425C65.4313 65.8969 64.8332 66.0224 64.0999 66.1189C63.3667 66.2154 62.7299 66.2636 62.1896 66.2636C60.4915 66.2636 59.1794 65.9548 58.2532 65.3372C57.3463 64.7195 56.8928 63.6676 56.8928 62.1814V54.5382H54.751V50.6297H57.1244L58.369 45.9975H62.6527V50.6297H65.8944Z" fill="#898989"/>
<path d="M74.6742 50.2823C77.009 50.2823 78.9097 50.678 80.3762 51.4693C81.8427 52.2414 82.5759 53.5056 82.5759 55.262V61.226C82.5759 61.5541 82.6531 61.8244 82.8075 62.0367C82.9619 62.249 83.1934 62.3551 83.5022 62.3551H84.5441V65.6846C84.4863 65.7232 84.3319 65.7907 84.081 65.8872C83.8495 65.9644 83.5118 66.0417 83.068 66.1189C82.6242 66.2154 82.1128 66.2636 81.534 66.2636C80.4148 66.2636 79.4886 66.0996 78.7553 65.7714C78.0414 65.424 77.5493 64.9511 77.2792 64.3528C76.5459 64.9318 75.7259 65.3951 74.8189 65.7425C73.912 66.0899 72.8507 66.2636 71.6351 66.2636C68.046 66.2636 66.2515 64.8353 66.2515 61.9788C66.2515 60.4926 66.6471 59.3635 67.4382 58.5914C68.2486 57.8001 69.4064 57.2597 70.9115 56.9701C72.4166 56.6806 74.3848 56.5359 76.8161 56.5359V55.7831C76.8161 55.1848 76.6038 54.7312 76.1793 54.4224C75.7741 54.1136 75.2435 53.9592 74.5874 53.9592C73.9892 53.9592 73.4682 54.0653 73.0244 54.2776C72.5999 54.4899 72.3876 54.8277 72.3876 55.2909V55.4067H66.7146C66.6953 55.3102 66.6857 55.1751 66.6857 55.0014C66.6857 53.5538 67.3707 52.4054 68.7407 51.5562C70.13 50.7069 72.1078 50.2823 74.6742 50.2823ZM76.8161 59.2573C75.1759 59.2573 73.9603 59.4407 73.1691 59.8074C72.3973 60.1548 72.0114 60.6277 72.0114 61.226C72.0114 62.1911 72.6674 62.6736 73.9796 62.6736C74.7321 62.6736 75.3882 62.4709 75.9478 62.0656C76.5266 61.6603 76.8161 61.1585 76.8161 60.5601V59.2573Z" fill="#898989"/>
<path d="M53.5866 45.769C53.5866 47.4152 52.2521 48.7496 50.6059 48.7496C48.9597 48.7496 47.6252 47.4152 47.6252 45.769C47.6252 44.1228 48.9597 42.7883 50.6059 42.7883C52.2521 42.7883 53.5866 44.1228 53.5866 45.769Z" fill="#898989"/>
<path d="M100.361 24.7143C100.361 13.8264 108.865 5 119.356 5C129.847 5 138.351 13.8264 138.351 24.7143M105.829 42V58.7143M115.183 42V58.7143M124.393 42V58.7143M133.602 42V58.7143M90 34.7143C90 32.1896 91.9328 30.1429 94.3171 30.1429H144.683C147.067 30.1429 149 32.1896 149 34.7143C149 36.9212 147.743 38.5446 145.834 38.9183L141.805 62.4286C141.805 64.9533 139.872 67 137.488 67H102.088C99.7036 67 97.7707 64.9533 97.7707 62.4286L93.8854 39.2631C91.7038 39.0338 90 37.0847 90 34.7143Z" stroke="#FF4F00" stroke-width="3"/>
</svg>
