<svg width="24" height="24" viewBox="0 0 24 24" fill="none" xmlns="http://www.w3.org/2000/svg">
<path d="M14.4167 0V4.79167" stroke="#FF4F00"/>
<path d="M9.625 0V4.79167" stroke="#FF4F00"/>
<path d="M17.1772 1.91667C17.1772 1.91667 19.0918 1.91667 20.9396 1.91667C22.7873 1.91667 23.0417 3.4268 23.0417 3.65601C23.0417 3.88523 23.0417 7.95718 23.0417 7.95718M6.97458 1.91667H2.82391C1.64499 2.11269 1.02975 3.03578 1.02975 3.65601C1.02975 4.27624 1.02975 7.95718 1.02975 7.95718M1.02975 7.95718C1.02975 7.95718 0.962808 19.7416 1.02975 20.8472C1.0967 21.9528 2.2214 22.9641 2.82391 22.9641C3.42643 22.9641 20.1496 23.045 20.9396 22.9641C21.7295 22.8832 23.0417 22.3843 23.0417 20.8472C23.0417 19.3101 23.0417 7.95718 23.0417 7.95718M1.02975 7.95718H23.0417" stroke="#FF4F00"/>
</svg>
