<svg width="24" height="24" viewBox="0 0 24 24" fill="none" class="ionicon s-ion-icon" xmlns="http://www.w3.org/2000/svg">
<path d="M7.70834 15.4555L10.7621 19.1667L17.2917 11.5"/>
<path d="M14.4167 0V4.79167"/>
<path d="M9.625 0V4.79167" />
<path d="M17.1772 1.91666C17.1772 1.91666 19.0918 1.91666 20.9396 1.91666C22.7873 1.91666 23.0417 3.42678 23.0417 3.656C23.0417 3.88521 23.0417 7.95716 23.0417 7.95716M6.97458 1.91666H2.82391C1.64499 2.11267 1.02975 3.03577 1.02975 3.656C1.02975 4.27623 1.02975 7.95716 1.02975 7.95716M1.02975 7.95716C1.02975 7.95716 0.962808 19.7415 1.02975 20.8472C1.0967 21.9528 2.2214 22.964 2.82391 22.964C3.42643 22.964 20.1496 23.0449 20.9396 22.964C21.7295 22.8831 23.0417 22.3843 23.0417 20.8472C23.0417 19.3101 23.0417 7.95716 23.0417 7.95716M1.02975 7.95716H23.0417"/>
</svg>
