<svg width="23" height="24" viewBox="0 0 23 24" fill="none" xmlns="http://www.w3.org/2000/svg">
<path d="M14.0796 0V4.79167" stroke="#898989"/>
<path d="M9.4082 0V4.79167" stroke="#898989"/>
<path d="M16.7705 1.91669C16.7705 1.91669 18.637 1.91669 20.4383 1.91669C22.2396 1.91669 22.4876 3.42681 22.4876 3.65603C22.4876 3.88524 22.4876 7.95719 22.4876 7.95719M6.82438 1.91669H2.77806C1.62877 2.1127 1.02901 3.0358 1.02901 3.65603C1.02901 4.27626 1.02901 7.95719 1.02901 7.95719M1.02901 7.95719C1.02901 7.95719 0.963743 19.7416 1.02901 20.8472C1.09427 21.9528 2.19069 22.9641 2.77806 22.9641C3.36543 22.9641 19.6682 23.045 20.4383 22.9641C21.2084 22.8832 22.4876 22.3843 22.4876 20.8472C22.4876 19.3101 22.4876 7.95719 22.4876 7.95719M1.02901 7.95719H22.4876" stroke="#898989"/>
</svg>
