<svg width="25" height="26" viewBox="0 0 25 26" fill="none" class="ionicon s-ion-icon" xmlns="http://www.w3.org/2000/svg">
<path d="M4.98157 8.63134C4.98157 4.41667 8.24968 1 12.2811 1C16.3125 1 19.5806 4.41667 19.5806 8.63134M7.08295 15.3226V21.7926M10.6774 15.3226V21.7926M14.2166 15.3226V21.7926M17.7558 15.3226V21.7926M1 12.5023C1 11.525 1.74275 10.7327 2.65899 10.7327H22.0138C22.9301 10.7327 23.6728 11.525 23.6728 12.5023C23.6728 13.3566 23.1898 13.985 22.4562 14.1297L20.9078 23.2304C20.9078 24.2077 20.1651 25 19.2488 25H5.64516C4.72893 25 3.98617 24.2077 3.98617 23.2304L2.49309 14.2632C1.65475 14.1744 1 13.4199 1 12.5023Z"/>
</svg>
