<svg width="30" height="30" viewBox="0 0 30 30" fill="none" xmlns="http://www.w3.org/2000/svg">
<circle cx="15" cy="15" r="15" fill="#FF4F00"/>
<path d="M19.3844 7.80876C18.4374 8.7377 9.88829 16.981 9.88829 16.981L8 22.6923L13.8222 20.84C13.8222 20.84 21.9554 12.7167 23.04 11.5769C24.1246 10.4372 20.3313 6.87982 19.3844 7.80876ZM22.08 11.25L21.12 12.2308L19.84 10.9231L18.56 9.61538L19.6791 8.63462C19.6791 8.63462 20.2675 8.41756 21.44 9.61538C22.6125 10.8132 22.08 11.25 22.08 11.25ZM10.5024 18.072L12.71 20.2376L9.44266 21.2771L9.97251 19.6745L10.5024 18.072ZM10.9505 17.2253L17.9238 10.3847L18.9073 11.3495L11.934 18.19L10.9505 17.2253ZM12.5896 18.8332L19.5629 11.9926L20.5464 12.9573L13.5731 19.7979L12.5896 18.8332Z" fill="white"/>
</svg>
