<svg width="14" height="32" viewBox="0 0 14 32" fill="none" xmlns="http://www.w3.org/2000/svg">
<path d="M12.5143 2.9533C12.5143 4.58436 11.2535 5.90659 9.69824 5.90659C8.14298 5.90659 6.8822 4.58436 6.8822 2.9533C6.8822 1.32224 8.14298 0 9.69824 0C11.2535 0 12.5143 1.32224 12.5143 2.9533Z" fill="#898989"/>
<path d="M0.183536 13.782C0.354087 13.4688 4.96228 6.53305 6.02897 6.08558C7.09565 5.6381 8.41834 6.17507 8.80235 6.89103C9.18635 7.60699 9.99703 10.4708 10.3384 10.963C10.6797 11.4552 13.6236 13.8268 13.8796 14.319C14.1356 14.8112 14.0042 15.4929 13.2824 15.7957C13.2824 15.7957 13.2823 31.5466 13.2824 31.815C13.2825 32.0835 12.6852 32.0388 12.6851 31.815C12.685 31.5913 12.7703 15.7957 12.6851 15.7957C12.5998 15.7957 12.4716 15.7062 12.4716 15.7062C12.4716 15.7062 9.01568 12.7529 8.67435 12.3054C8.33301 11.8579 8.33301 10.963 8.11967 10.963C7.90633 10.963 4.1516 15.9299 4.1516 16.3774C4.1516 16.8248 7.35166 22.5972 7.26632 23.4474C7.18099 24.2976 5.47429 30.6964 5.21829 31.2333C4.96228 31.7703 3.81026 31.8598 3.38359 31.815C2.95692 31.7703 1.8049 30.8306 2.10357 29.9804C2.40224 29.1302 3.81026 24.0738 3.7676 23.4474C3.72493 22.8209 0.492776 16.2879 0.183536 15.7957C-0.125704 15.3034 0.0129853 14.0953 0.183536 13.782Z" fill="#898989"/>
</svg>
