<svg width="24" height="31" viewBox="0 0 24 31" fill="none" xmlns="http://www.w3.org/2000/svg">
<path d="M5.63217 15.1287V13.1346C3.30802 14.3878 1.47366 16.9493 0.932741 18.5965C0.391825 20.2438 0.16395 22.2378 0.761834 24.3186C1.35972 26.3993 3.3252 28.6101 4.86319 29.5204C6.40119 30.4307 7.81102 30.7775 9.69079 30.7775C11.5706 30.7775 13.536 29.9972 14.8602 28.9135C16.1843 27.8298 16.9068 26.8334 17.8934 25.0988C17.4038 24.3468 17.2874 24.0652 16.8681 23.2348C16.7409 24.0758 16.6694 24.5473 16.0991 25.489C14.9574 27.1309 12.8949 28.9135 10.5879 29.2603C8.28094 29.6071 6.78543 29.0435 5.20494 27.9598C3.62444 26.8761 2.42803 25.3156 2.04353 22.5846C1.65904 19.8536 2.73729 17.2207 5.63217 15.1287Z" fill="#898989"/>
<path d="M12.425 2.86101C12.425 4.4411 11.1626 5.72201 9.60533 5.72201C8.04807 5.72201 6.78567 4.4411 6.78567 2.86101C6.78567 1.28092 8.04807 0 9.60533 0C11.1626 0 12.425 1.28092 12.425 2.86101Z" fill="#898989"/>
<path d="M9.47716 6.28554C8.11005 6.28554 6.78567 7.71605 6.78567 8.23623L6.78567 9.21828C6.78568 11.6491 6.78569 17.7071 6.78567 18.5965C6.78565 19.6803 7.64013 20.5906 8.79361 20.5906C9.94709 20.5906 15.8 20.5472 16.4836 20.8073C17.1671 21.0674 20.8412 28.3066 21.1403 28.5234C21.4394 28.7401 22.3691 28.7767 23.0201 28.3066C23.4802 27.8048 23.6609 27.1796 23.5755 26.616C23.49 26.0525 18.9614 17.8596 18.3206 17.5562C17.6798 17.2527 12.1259 17.3828 12.1259 17.3828V13.6982C12.1259 13.6982 16.7081 13.6604 16.8254 13.6982C16.9426 13.7359 17.5944 13.3947 17.5944 12.7878C17.5944 12.181 17.3056 11.8299 16.8254 11.5307H12.1259V8.23623C12.1259 7.62935 10.8443 6.28554 9.47716 6.28554Z" fill="#898989"/>
</svg>
