<svg width="22" height="25" viewBox="0 0 22 25" fill="none" class="ionicon s-ion-icon" xmlns="http://www.w3.org/2000/svg">
<path d="M9.87999 1.42268C9.41941 1.82899 1.62803 8.9578 1.24422 9.29023C0.860403 9.62266 0.886902 10.5471 1.62803 10.7308H20.4348C21.356 10.583 21.5095 9.91816 21.2024 9.51185C20.8954 9.10555 13.2192 2.12448 12.3364 1.42268C11.4536 0.720884 10.3406 1.01638 9.87999 1.42268Z"/>
<path d="M2.76923 13.3846C2.76923 13.3846 2.76923 18.9307 2.76923 21.2442C2.76923 23.5577 3.46691 24 4.98076 24C6.49462 24 6.53446 23.9506 6.53446 23.9506C6.53446 23.9506 6.53446 20.2432 6.53446 17.9817C6.53446 15.7202 12.1241 16.0539 12.1241 17.9817C12.1241 19.9096 12.1241 23.9506 12.1241 23.9506C12.1241 23.9506 15.7729 24.0618 16.9374 23.9506C18.1019 23.8393 19.5769 23.5577 19.5769 21.7885C19.5769 20.0192 19.5769 13.3846 19.5769 13.3846"/>
</svg>
