<svg width="39" height="43" viewBox="0 0 39 43" fill="none" xmlns="http://www.w3.org/2000/svg">
<path d="M27.1866 7.80194H28.7899C29.6754 7.80194 30.3933 7.08411 30.3933 6.19862V3.9139L32.6482 3.90517C35.5998 3.90517 37.9925 6.29793 37.9925 9.24955V35.6508C37.9925 38.6024 35.5998 40.9952 32.6482 40.9952H6.32705C3.37543 40.9952 0.982666 38.6024 0.982666 35.6508V9.24955C0.982666 6.29793 3.37543 3.90517 6.32705 3.90517L9.1226 3.9139L9.12264 6.21049C9.12902 7.09051 9.84439 7.80194 10.7259 7.80194H12.3292C13.2108 7.80194 13.9261 7.09051 13.9325 6.21049L13.9325 3.9139H25.5833V6.19862C25.5833 7.08411 26.3011 7.80194 27.1866 7.80194Z" fill="url(#paint0_linear)"/>
<path d="M9.97607 1.34391C9.97607 1.02968 10.2308 0.774948 10.545 0.774948H12.6137C12.928 0.774948 13.1827 1.02968 13.1827 1.34391V6.40547C13.1827 6.7197 12.928 6.97444 12.6137 6.97444H10.545C10.2308 6.97444 9.97607 6.7197 9.97607 6.40547V1.34391Z" fill="url(#paint1_linear)"/>
<path d="M26.3835 1.34391C26.3835 1.02968 26.6383 0.774948 26.9525 0.774948H29.0212C29.3354 0.774948 29.5902 1.02968 29.5902 1.34391V6.40547C29.5902 6.7197 29.3354 6.97444 29.0212 6.97444H26.9525C26.6383 6.97444 26.3835 6.7197 26.3835 6.40547V1.34391Z" fill="url(#paint2_linear)"/>
<path d="M3.83008 14.6169C3.83008 12.4032 5.62465 10.6086 7.83837 10.6086H31.2468C33.4605 10.6086 35.2551 12.4032 35.2551 14.6169V33.2421C35.2551 35.4558 33.4605 37.2504 31.2468 37.2504H7.83837C5.62465 37.2504 3.83008 35.4558 3.83008 33.2421V14.6169Z" fill="white"/>
<path d="M19.8087 35.3276C26.1514 35.3276 31.2932 30.2213 31.2932 23.9224C31.2932 17.6235 26.1514 12.5172 19.8087 12.5172C19.3408 13.1818 19.3306 13.5534 19.8282 14.2142C25.2141 14.2142 29.5802 18.5519 29.5802 23.9027C29.5802 29.2535 25.2141 33.5912 19.8282 33.5912C14.4422 33.5912 10.0761 29.2535 10.0761 23.9027C9.39042 23.2752 9.00688 23.2942 8.32422 23.9224C8.32422 30.2213 13.466 35.3276 19.8087 35.3276Z" fill="url(#paint3_linear)"/>
<path d="M16.6943 14.2142C16.6943 14.7591 16.2585 15.2008 15.721 15.2008C15.1835 15.2008 14.7477 14.7591 14.7477 14.2142C14.7477 13.6693 15.1835 13.2276 15.721 13.2276C16.2585 13.2276 16.6943 13.6693 16.6943 14.2142Z" fill="url(#paint4_linear)"/>
<path d="M13.3462 16.5031C13.3462 17.048 12.9105 17.4897 12.373 17.4897C11.8355 17.4897 11.3997 17.048 11.3997 16.5031C11.3997 15.9582 11.8355 15.5165 12.373 15.5165C12.9105 15.5165 13.3462 15.9582 13.3462 16.5031Z" fill="url(#paint5_linear)"/>
<path d="M11.0883 19.8576C11.0883 20.4025 10.6525 20.8442 10.115 20.8442C9.5775 20.8442 9.14176 20.4025 9.14176 19.8576C9.14176 19.3127 9.5775 18.871 10.115 18.871C10.6525 18.871 11.0883 19.3127 11.0883 19.8576Z" fill="url(#paint6_linear)"/>
<path d="M13.1897 26.1858L15.388 24.8151C16.1646 25.8243 16.604 26.5041 17.3406 26.341C20.1284 21.4407 22.5388 18.6082 23.2888 18.091C24.0388 17.5737 26.7414 17.1987 25.125 18.9962C23.5087 20.7936 23.5497 20.7105 22.0604 22.8884L20.1207 26.1858C19.4267 27.369 18.8746 28.9277 18.3233 30.1815H16.0862C15.3867 28.7832 14.5552 27.8342 13.1897 26.1858Z" fill="#898989"/>
<defs>
<linearGradient id="paint0_linear" x1="19.4876" y1="3.90517" x2="19.4876" y2="40.9952" gradientUnits="userSpaceOnUse">
<stop stop-color="#F64C01"/>
<stop offset="1" stop-color="#FF773A"/>
</linearGradient>
<linearGradient id="paint1_linear" x1="11.5794" y1="0.774948" x2="11.5794" y2="6.97444" gradientUnits="userSpaceOnUse">
<stop stop-color="#F64C01"/>
<stop offset="1" stop-color="#FF773A"/>
</linearGradient>
<linearGradient id="paint2_linear" x1="27.9869" y1="0.774948" x2="27.9869" y2="6.97444" gradientUnits="userSpaceOnUse">
<stop stop-color="#F64C01"/>
<stop offset="1" stop-color="#FF773A"/>
</linearGradient>
<linearGradient id="paint3_linear" x1="19.8087" y1="12.5172" x2="19.8087" y2="35.3276" gradientUnits="userSpaceOnUse">
<stop stop-color="#F64C01"/>
<stop offset="1" stop-color="#FF773A"/>
</linearGradient>
<linearGradient id="paint4_linear" x1="19.8087" y1="12.5172" x2="19.8087" y2="35.3276" gradientUnits="userSpaceOnUse">
<stop stop-color="#F64C01"/>
<stop offset="1" stop-color="#FF773A"/>
</linearGradient>
<linearGradient id="paint5_linear" x1="19.8087" y1="12.5172" x2="19.8087" y2="35.3276" gradientUnits="userSpaceOnUse">
<stop stop-color="#F64C01"/>
<stop offset="1" stop-color="#FF773A"/>
</linearGradient>
<linearGradient id="paint6_linear" x1="19.8087" y1="12.5172" x2="19.8087" y2="35.3276" gradientUnits="userSpaceOnUse">
<stop stop-color="#F64C01"/>
<stop offset="1" stop-color="#FF773A"/>
</linearGradient>
</defs>
</svg>
