<svg width="125" height="71" viewBox="0 0 125 71" fill="none" xmlns="http://www.w3.org/2000/svg">
<path d="M105.147 13.1117H107.841C109.33 13.1117 110.536 11.9054 110.536 10.4173V6.5776L114.325 6.56293C119.286 6.56293 123.307 10.5841 123.307 15.5446V59.9139C123.307 64.8743 119.286 68.8955 114.325 68.8955H70.0908C65.1304 68.8955 61.1092 64.8743 61.1092 59.9139V15.5446C61.1092 10.5841 65.1304 6.56293 70.0908 6.56293L74.7889 6.5776L74.789 10.4372C74.7997 11.9161 76.002 13.1117 77.4834 13.1117H80.1779C81.6594 13.1117 82.8616 11.9161 82.8724 10.4372L82.8724 6.5776H102.452V10.4173C102.452 11.9054 103.659 13.1117 105.147 13.1117Z" fill="url(#paint0_linear)"/>
<path d="M76.2231 2.25853C76.2231 1.73044 76.6512 1.30234 77.1793 1.30234H80.6559C81.184 1.30234 81.6121 1.73044 81.6121 2.25853V10.7649C81.6121 11.2929 81.184 11.721 80.6559 11.721H77.1793C76.6512 11.721 76.2231 11.2929 76.2231 10.7649V2.25853Z" fill="url(#paint1_linear)"/>
<path d="M103.797 2.25853C103.797 1.73044 104.225 1.30234 104.753 1.30234H108.23C108.758 1.30234 109.186 1.73044 109.186 2.25853V10.7649C109.186 11.2929 108.758 11.721 108.23 11.721H104.753C104.225 11.721 103.797 11.2929 103.797 10.7649V2.25853Z" fill="url(#paint2_linear)"/>
<path d="M65.8942 24.5648C65.8942 20.8445 68.9101 17.8286 72.6305 17.8286H111.97C115.69 17.8286 118.706 20.8445 118.706 24.5648V55.8658C118.706 59.5861 115.69 62.602 111.97 62.602H72.6305C68.9101 62.602 65.8942 59.5861 65.8942 55.8658V24.5648Z" fill="white"/>
<path d="M88.0634 23.3611C88.0634 24.3072 87.3067 25.0743 86.3734 25.0743C85.44 25.0743 84.6833 24.3072 84.6833 23.3611C84.6833 22.4149 85.44 21.6479 86.3734 21.6479C87.3067 21.6479 88.0634 22.4149 88.0634 23.3611Z" fill="url(#paint3_linear)"/>
<path d="M82.2497 27.3357C82.2497 28.2818 81.4931 29.0489 80.5597 29.0489C79.6263 29.0489 78.8697 28.2818 78.8697 27.3357C78.8697 26.3895 79.6263 25.6225 80.5597 25.6225C81.4931 25.6225 82.2497 26.3895 82.2497 27.3357Z" fill="url(#paint4_linear)"/>
<path d="M78.3289 33.1605C78.3289 34.1067 77.5722 34.8737 76.6388 34.8737C75.7055 34.8737 74.9488 34.1067 74.9488 33.1605C74.9488 32.2144 75.7055 31.4473 76.6388 31.4473C77.5722 31.4473 78.3289 32.2144 78.3289 33.1605Z" fill="url(#paint5_linear)"/>
<path d="M113.414 40.2189C113.414 51.1566 104.485 60.0234 93.4714 60.0234C83.195 60.0234 74.7341 52.3041 73.6472 42.3858L71.0652 42.5454L74.534 36.3067L79.3306 41.9685L76.6912 42.1977C77.6925 50.54 84.8386 57.0082 93.5052 57.0082C102.858 57.0082 110.439 49.476 110.439 40.1846C110.439 30.8932 102.858 23.3611 93.5052 23.3611C92.6412 22.2136 92.659 21.5683 93.4714 20.4144C104.485 20.4144 113.414 29.2812 113.414 40.2189Z" fill="url(#paint6_linear)"/>
<path d="M88.8922 37.6151V39.7438H81.9539V38.0437L84.286 35.6825C84.9641 34.9705 85.4024 34.491 85.601 34.244C85.7996 33.997 85.9401 33.7814 86.0224 33.5974C86.1047 33.4133 86.1459 33.2099 86.1459 32.9871C86.1459 32.7643 86.0636 32.5803 85.8989 32.4349C85.739 32.2896 85.5138 32.217 85.2232 32.217C84.9326 32.217 84.6347 32.2993 84.3296 32.464C84.0293 32.6287 83.6757 32.8878 83.2689 33.2414L81.8449 31.5776C82.3292 31.1417 82.7433 30.8269 83.0872 30.6332C83.7895 30.2408 84.5984 30.0447 85.5138 30.0447C86.4389 30.0253 87.2066 30.2675 87.8169 30.7712C88.4272 31.2749 88.7251 31.9046 88.7105 32.6602C88.7105 33.3818 88.5168 34.043 88.1293 34.6436C87.9259 34.9584 87.6595 35.2878 87.3301 35.6316C87.0008 35.9755 86.3154 36.6149 85.2741 37.5497V37.6151H88.8922Z" fill="#898989"/>
<path d="M92.8638 35.9658V34.8543C92.8638 34.646 92.8711 34.3675 92.8856 34.0188C92.9001 33.6652 92.9123 33.4739 92.9219 33.4448H92.8493C92.7088 33.779 92.5417 34.0938 92.348 34.3893L91.2873 35.9658H92.8638ZM96.4674 35.9658V37.8911H95.4139V39.7438H92.8638V37.8911H89.0496V35.9949L93.0309 30.1827H95.4139V35.9658H96.4674Z" fill="#898989"/>
<path d="M97.8006 45.5362V43.4003H104.703V44.926L101.332 52.9468H98.6579L101.942 45.5362H97.8006Z" fill="#898989"/>
<path d="M101.687 36.9146L99.9184 35.7469L91.1775 47.1953L92.9206 48.4844L101.687 36.9146Z" fill="#898989"/>
<path d="M35.11 21.9955V38.5404H28.9462V21.9955H23.3884V17.2983H40.6505V21.9955H35.11Z" fill="#898989"/>
<path d="M57.7501 38.5404H53.1618L52.4 36.4904H52.0364C51.5285 37.2437 50.8129 37.8248 49.8895 38.2337C48.9776 38.6318 47.9157 38.8309 46.7037 38.8309C44.7645 38.8309 43.2524 38.3036 42.1674 37.2491C41.0939 36.1945 40.5572 34.7149 40.5572 32.8102V22.0762H46.6517V31.0669C46.6517 32.1645 46.8133 32.9878 47.1365 33.5366C47.4713 34.0746 48.008 34.3436 48.7467 34.3436C49.7971 34.3436 50.5416 33.9616 50.9802 33.1976C51.4304 32.4228 51.6555 31.1207 51.6555 29.2914V22.0762H57.7501V38.5404Z" fill="#898989"/>
<path d="M16.2069 46.1599C14.21 45.2883 12.4728 44.8525 10.9953 44.8525C9.51786 44.8525 8.36936 45.412 7.54983 46.5312C6.73029 47.6503 6.32052 49.1945 6.32052 51.1637C6.32052 55.2421 7.98845 57.2813 11.3243 57.2813C12.8479 57.2813 14.7756 56.8401 17.1072 55.9577V60.8001C15.2142 61.5857 13.0615 61.9785 10.649 61.9785C7.20931 61.9785 4.5718 61.0476 2.7365 59.186C0.912753 57.3244 0.000876663 54.6395 0.000876663 51.1315C-0.0222088 48.947 0.410644 47.0208 1.29943 45.3528C2.19977 43.6741 3.49255 42.3828 5.17779 41.4789C6.86303 40.5642 8.81953 40.1177 11.0473 40.1392C13.5174 40.1392 15.8664 40.6396 18.0941 41.6403L16.2069 46.1599Z" fill="#898989"/>
<path d="M25.9299 45.2237V61.6879H19.8353V45.2237H25.9299ZM26.1723 41.1399C26.1723 42.7971 25.0873 43.6257 22.9172 43.6257C20.7587 43.6257 19.6795 42.7971 19.6795 41.1399C19.6795 40.2683 19.9334 39.628 20.4413 39.2191C20.9607 38.8102 21.7803 38.6058 22.8999 38.6058C24.0311 38.6058 24.8564 38.8156 25.3758 39.2353C25.9068 39.6549 26.1723 40.2898 26.1723 41.1399Z" fill="#898989"/>
<path d="M35.8108 55.8932C35.8108 56.9585 36.3591 57.4912 37.4557 57.4912C38.2637 57.4912 39.2448 57.3028 40.3991 56.9262V61.0584C39.6488 61.3705 38.887 61.6018 38.1136 61.7525C37.3518 61.9031 36.463 61.9785 35.4472 61.9785C33.4273 61.9785 31.9556 61.5157 31.0321 60.5903C30.1203 59.6649 29.6643 58.2229 29.6643 56.2644V49.485H27.5347V47.1768L30.2357 45.3851L31.8113 41.9309H35.8108V45.2237H40.1394V49.485H35.8108V55.8932Z" fill="#898989"/>
<path d="M57.8494 61.6879H53.6421L52.4648 59.5088H52.3436C51.5471 60.445 50.7103 61.0907 49.833 61.4458C48.9673 61.8009 47.865 61.9785 46.526 61.9785C44.8523 61.9785 43.5422 61.5104 42.5957 60.5742C41.6492 59.638 41.176 58.3359 41.176 56.6679C41.176 53.289 43.7211 51.5027 48.8115 51.309L51.7722 51.2122V50.9862C51.7722 49.6303 51.0508 48.9524 49.6079 48.9524C48.3382 48.9524 46.7049 49.3559 44.708 50.163L42.942 46.4182C45.0082 45.4282 47.6053 44.9332 50.7333 44.9332C52.9957 44.9332 54.7444 45.4605 55.9795 46.515C57.2261 47.5696 57.8494 49.0277 57.8494 50.8893V61.6879ZM47.3917 56.4581C47.3917 57.4696 47.9689 57.9754 49.1231 57.9754C49.8619 57.9754 50.4909 57.7602 51.0104 57.3297C51.5298 56.8993 51.7895 56.329 51.7895 55.6188V54.3436L50.3871 54.392C48.3902 54.4781 47.3917 55.1668 47.3917 56.4581Z" fill="#898989"/>
<defs>
<linearGradient id="paint0_linear" x1="92.2081" y1="6.56293" x2="92.2081" y2="68.8955" gradientUnits="userSpaceOnUse">
<stop stop-color="#F64C01"/>
<stop offset="1" stop-color="#FF773A"/>
</linearGradient>
<linearGradient id="paint1_linear" x1="78.9176" y1="1.30234" x2="78.9176" y2="11.721" gradientUnits="userSpaceOnUse">
<stop stop-color="#F64C01"/>
<stop offset="1" stop-color="#FF773A"/>
</linearGradient>
<linearGradient id="paint2_linear" x1="106.491" y1="1.30234" x2="106.491" y2="11.721" gradientUnits="userSpaceOnUse">
<stop stop-color="#F64C01"/>
<stop offset="1" stop-color="#FF773A"/>
</linearGradient>
<linearGradient id="paint3_linear" x1="92.2395" y1="20.4144" x2="92.2395" y2="60.0234" gradientUnits="userSpaceOnUse">
<stop stop-color="#F64C01"/>
<stop offset="1" stop-color="#FF773A"/>
</linearGradient>
<linearGradient id="paint4_linear" x1="92.2395" y1="20.4144" x2="92.2395" y2="60.0234" gradientUnits="userSpaceOnUse">
<stop stop-color="#F64C01"/>
<stop offset="1" stop-color="#FF773A"/>
</linearGradient>
<linearGradient id="paint5_linear" x1="92.2395" y1="20.4144" x2="92.2395" y2="60.0234" gradientUnits="userSpaceOnUse">
<stop stop-color="#F64C01"/>
<stop offset="1" stop-color="#FF773A"/>
</linearGradient>
<linearGradient id="paint6_linear" x1="92.2395" y1="20.4144" x2="92.2395" y2="60.0234" gradientUnits="userSpaceOnUse">
<stop stop-color="#F64C01"/>
<stop offset="1" stop-color="#FF773A"/>
</linearGradient>
</defs>
</svg>
