<svg width="39" height="43" viewBox="0 0 39 43" fill="none" xmlns="http://www.w3.org/2000/svg">
<path d="M27.1866 8.21507H28.7899C29.6754 8.21507 30.3933 7.49724 30.3933 6.61175V4.32703L32.6482 4.3183C35.5998 4.3183 37.9925 6.71106 37.9925 9.66268V36.0639C37.9925 39.0156 35.5998 41.4083 32.6482 41.4083H6.32705C3.37543 41.4083 0.982666 39.0156 0.982666 36.0639V9.66268C0.982666 6.71106 3.37543 4.3183 6.32705 4.3183L9.1226 4.32703L9.12264 6.62362C9.12902 7.50364 9.84439 8.21507 10.7259 8.21507H12.3292C13.2108 8.21507 13.9261 7.50364 13.9325 6.62362L13.9325 4.32703H25.5833V6.61175C25.5833 7.49724 26.3011 8.21507 27.1866 8.21507Z" fill="url(#paint0_linear)"/>
<path d="M9.97607 1.75705C9.97607 1.44281 10.2308 1.18808 10.545 1.18808H12.6137C12.928 1.18808 13.1827 1.44281 13.1827 1.75705V6.8186C13.1827 7.13283 12.928 7.38757 12.6137 7.38757H10.545C10.2308 7.38757 9.97607 7.13283 9.97607 6.8186V1.75705Z" fill="url(#paint1_linear)"/>
<path d="M26.3835 1.75705C26.3835 1.44281 26.6383 1.18808 26.9525 1.18808H29.0212C29.3354 1.18808 29.5902 1.44281 29.5902 1.75705V6.8186C29.5902 7.13283 29.3354 7.38757 29.0212 7.38757H26.9525C26.6383 7.38757 26.3835 7.13283 26.3835 6.8186V1.75705Z" fill="url(#paint2_linear)"/>
<path d="M3.83008 15.03C3.83008 12.8163 5.62465 11.0218 7.83837 11.0218H31.2468C33.4605 11.0218 35.2551 12.8163 35.2551 15.03V33.6552C35.2551 35.869 33.4605 37.6635 31.2468 37.6635H7.83837C5.62465 37.6635 3.83008 35.869 3.83008 33.6552V15.03Z" fill="white"/>
<path d="M19.8087 35.7407C26.1514 35.7407 31.2932 30.6345 31.2932 24.3355C31.2932 18.0366 26.1514 12.9304 19.8087 12.9304C19.3408 13.5949 19.3306 13.9665 19.8282 14.6273C25.2141 14.6273 29.5802 18.965 29.5802 24.3158C29.5802 29.6666 25.2141 34.0043 19.8282 34.0043C14.4422 34.0043 10.0761 29.6666 10.0761 24.3158C9.39042 23.6883 9.00688 23.7074 8.32422 24.3355C8.32422 30.6345 13.466 35.7407 19.8087 35.7407Z" fill="url(#paint3_linear)"/>
<path d="M16.6943 14.6273C16.6943 15.1722 16.2585 15.6139 15.721 15.6139C15.1835 15.6139 14.7477 15.1722 14.7477 14.6273C14.7477 14.0824 15.1835 13.6407 15.721 13.6407C16.2585 13.6407 16.6943 14.0824 16.6943 14.6273Z" fill="url(#paint4_linear)"/>
<path d="M13.3462 16.9163C13.3462 17.4612 12.9105 17.9029 12.373 17.9029C11.8355 17.9029 11.3997 17.4612 11.3997 16.9163C11.3997 16.3714 11.8355 15.9297 12.373 15.9297C12.9105 15.9297 13.3462 16.3714 13.3462 16.9163Z" fill="url(#paint5_linear)"/>
<path d="M11.0883 20.2707C11.0883 20.8156 10.6525 21.2573 10.115 21.2573C9.5775 21.2573 9.14176 20.8156 9.14176 20.2707C9.14176 19.7258 9.5775 19.2841 10.115 19.2841C10.6525 19.2841 11.0883 19.7258 11.0883 20.2707Z" fill="url(#paint6_linear)"/>
<path d="M13.1897 26.5989L15.388 25.2283C16.1646 26.2375 16.604 26.9172 17.3406 26.7541C20.1284 21.8538 22.5388 19.0214 23.2888 18.5041C24.0388 17.9869 26.7414 17.6119 25.125 19.4093C23.5087 21.2067 23.5497 21.1236 22.0604 23.3015L20.1207 26.5989C19.4267 27.7821 18.8746 29.3409 18.3233 30.5946H16.0862C15.3867 29.1963 14.5552 28.2474 13.1897 26.5989Z" fill="#898989"/>
<defs>
<linearGradient id="paint0_linear" x1="19.4876" y1="4.3183" x2="19.4876" y2="41.4083" gradientUnits="userSpaceOnUse">
<stop stop-color="#F64C01"/>
<stop offset="1" stop-color="#FF773A"/>
</linearGradient>
<linearGradient id="paint1_linear" x1="11.5794" y1="1.18808" x2="11.5794" y2="7.38757" gradientUnits="userSpaceOnUse">
<stop stop-color="#F64C01"/>
<stop offset="1" stop-color="#FF773A"/>
</linearGradient>
<linearGradient id="paint2_linear" x1="27.9869" y1="1.18808" x2="27.9869" y2="7.38757" gradientUnits="userSpaceOnUse">
<stop stop-color="#F64C01"/>
<stop offset="1" stop-color="#FF773A"/>
</linearGradient>
<linearGradient id="paint3_linear" x1="19.8087" y1="12.9304" x2="19.8087" y2="35.7407" gradientUnits="userSpaceOnUse">
<stop stop-color="#F64C01"/>
<stop offset="1" stop-color="#FF773A"/>
</linearGradient>
<linearGradient id="paint4_linear" x1="19.8087" y1="12.9304" x2="19.8087" y2="35.7407" gradientUnits="userSpaceOnUse">
<stop stop-color="#F64C01"/>
<stop offset="1" stop-color="#FF773A"/>
</linearGradient>
<linearGradient id="paint5_linear" x1="19.8087" y1="12.9304" x2="19.8087" y2="35.7407" gradientUnits="userSpaceOnUse">
<stop stop-color="#F64C01"/>
<stop offset="1" stop-color="#FF773A"/>
</linearGradient>
<linearGradient id="paint6_linear" x1="19.8087" y1="12.9304" x2="19.8087" y2="35.7407" gradientUnits="userSpaceOnUse">
<stop stop-color="#F64C01"/>
<stop offset="1" stop-color="#FF773A"/>
</linearGradient>
</defs>
</svg>
