<svg width="13" height="31" viewBox="0 0 13 31" fill="none" xmlns="http://www.w3.org/2000/svg">
<path d="M8.21806 2.86101C8.21806 4.4411 6.95566 5.72201 5.3984 5.72201C3.84115 5.72201 2.57875 4.4411 2.57875 2.86101C2.57875 1.28092 3.84115 0 5.3984 0C6.95566 0 8.21806 1.28092 8.21806 2.86101Z" fill="#FF4F00"/>
<path fill-rule="evenodd" clip-rule="evenodd" d="M3.17685 6.89242L0.65625 23.4516H3.90313C3.90313 23.4516 3.77496 29.4337 3.90313 30.0406C4.0313 30.6474 5.01391 30.8642 5.44113 30.8642C5.86835 30.8642 6.50918 30.7341 6.76551 30.0406C7.02184 29.347 6.76551 23.4516 6.76551 23.4516H10.7814L10.1406 19.8536C11.6434 18.69 12.2814 17.7732 12.4476 15.6488C12.6137 13.5244 11.1232 11.9642 10.1406 11.1839C9.15795 10.4037 8.71 9.84807 8.04718 8.79976L7.79084 6.89242C7.68963 6.4915 7.50572 6.39277 7.10729 6.28554H3.90313C3.44293 6.42252 3.32957 6.58117 3.17685 6.89242ZM4.66507 9.80071C4.54212 11.3783 4.4982 11.942 4.9284 13.4814C5.7829 15.2154 6.86892 15.7751 8.51706 16.3424C9.33802 16.4779 9.78346 16.4541 10.5677 16.2557C10.9387 15.9728 10.9949 15.7355 10.9949 15.302C10.9949 14.8686 10.8668 14.5218 10.4396 14.4784C10.3067 14.4649 10.1739 14.4766 10.0218 14.49C9.68472 14.5196 9.25304 14.5575 8.51706 14.3484C7.44902 14.0449 6.80816 12.9612 6.55184 12.5277C6.29552 12.0942 6.25278 9.88347 6.25278 9.79677C6.25278 9.71008 6.21005 9.27659 5.74012 9.14654C5.27019 9.01649 4.71277 9.49334 4.67213 9.71008C4.66975 9.74066 4.66739 9.77087 4.66507 9.80071Z" fill="#FF4F00"/>
</svg>
