<svg width="63" height="66" viewBox="0 0 63 66" fill="none" xmlns="http://www.w3.org/2000/svg">
<path d="M12.361 21.7143C12.361 10.8264 20.8654 2 31.3561 2C41.8468 2 50.3512 10.8264 50.3512 21.7143M17.8293 39V55.7143M27.1829 39V55.7143M36.3927 39V55.7143M45.6024 39V55.7143M2 31.7143C2 29.1896 3.93282 27.1429 6.31707 27.1429H56.6829C59.0672 27.1429 61 29.1896 61 31.7143C61 33.9212 59.7431 35.5446 57.8341 35.9183L53.8049 59.4286C53.8049 61.9533 51.8721 64 49.4878 64H14.0878C11.7036 64 9.77073 61.9533 9.77073 59.4286L5.88537 36.2631C3.70381 36.0338 2 34.0847 2 31.7143Z" stroke="#FF4F00" stroke-width="3"/>
</svg>
