<svg width="45" height="45" viewBox="0 0 45 45" fill="none" xmlns="http://www.w3.org/2000/svg">
<path d="M4.22968 10.0583L5.22326 7.08C5.6016 5.94566 6.65938 5.18349 7.85483 5.18349H16.2055V2.46471C16.2055 1.10584 17.3103 0 18.6688 0H26.316C27.6742 0 28.7793 1.10584 28.7793 2.46471V5.18349H37.1296C38.3254 5.18349 39.3832 5.94566 39.7615 7.08L40.7551 10.0583C40.9814 10.7364 40.8667 11.4872 40.4489 12.0671C40.031 12.647 39.355 12.9934 38.6402 12.9934H37.6017L35.3158 41.2595C35.1459 43.3569 33.3661 45 31.2633 45H13.2577C11.1552 45 9.37506 43.3569 9.20546 41.2592L6.91962 12.9934H6.34455C5.62976 12.9934 4.95375 12.647 4.53593 12.0675C4.11811 11.4876 4.00344 10.7364 4.22968 10.0583V10.0583ZM26.1426 2.63672H18.8422V5.18349H26.1426V2.63672ZM11.8336 41.0466C11.8933 41.7851 12.5189 42.3633 13.2577 42.3633H31.2633C32.0021 42.3633 32.6276 41.7851 32.6874 41.0466L34.9564 12.9934H9.56492L11.8336 41.0466ZM38.0748 10.3567L37.2601 7.91428C37.2415 7.85797 37.189 7.82021 37.1296 7.82021H7.85483C7.79544 7.82021 7.74325 7.85797 7.72437 7.91428L6.90966 10.3567H38.0748Z" fill="#FF4F00"/>
<path d="M16.0388 40.9532C16.0154 40.9545 15.9924 40.9549 15.9691 40.9549C15.2725 40.9549 14.6902 40.409 14.6538 39.7052L13.4158 15.9397C13.378 15.2125 13.937 14.5922 14.6638 14.5544C15.3926 14.5156 16.011 15.0752 16.0491 15.8024L17.2868 39.5679C17.3245 40.295 16.7659 40.9154 16.0388 40.9532V40.9532Z" fill="#FF4F00"/>
<path d="M30.2724 39.7083C30.234 40.4111 29.6524 40.9549 28.9572 40.9549C28.9331 40.9549 28.9084 40.9542 28.884 40.9528C28.1572 40.9134 27.6 40.2919 27.6395 39.5648L28.9362 15.7993C28.9757 15.0721 29.5971 14.5149 30.3243 14.5547C31.0511 14.5942 31.6083 15.2156 31.5688 15.9428L30.2724 39.7083Z" fill="#FF4F00"/>
</svg>
